<svg width="56" height="64" viewBox="0 0 56 64" fill="none" xmlns="http://www.w3.org/2000/svg">
<g filter="url(#filter0_d)">
<path d="M52 14.2108V33.9843C52 41.8323 45.6674 48.1951 37.8565 48.1951H36.426L29.1206 55.5305C28.8345 55.8179 28.4387 56 28 56C27.5947 56 27.2275 55.8515 26.9462 55.6023L26.8222 55.4778L26.8174 55.473L19.574 48.1951H18.1387C10.3326 48.1951 4 41.8323 4 33.9843V14.2108C4 6.36277 10.3326 0 18.1435 0H37.8565C45.6674 0 52 6.36277 52 14.2108Z" fill="#FFD666"/>
<path d="M15.1758 27.3927C13.7834 27.3927 12.9898 28.9869 13.7977 30.138C16.9389 34.6221 22.1332 37.5456 28.0023 37.5456C33.8714 37.5456 39.061 34.6173 42.2022 30.138C43.0101 28.9869 42.2165 27.3927 40.8241 27.3927H15.1758Z" fill="white"/>
<path d="M23.3308 20.6063H14.9287V16.3486C14.9287 13.9982 16.8106 12.0909 19.1298 12.0909C21.4489 12.0909 23.3308 13.9982 23.3308 16.3486V20.6063Z" fill="white"/>
<path d="M41.0766 20.6063H32.6746V16.3486C32.6746 13.9982 34.5565 12.0909 36.8756 12.0909C39.1947 12.0909 41.0766 13.9982 41.0766 16.3486V20.6063Z" fill="white"/>
</g>
<defs>
<filter id="filter0_d" x="0" y="0" width="56" height="64" filterUnits="userSpaceOnUse" color-interpolation-filters="sRGB">
<feFlood flood-opacity="0" result="BackgroundImageFix"/>
<feColorMatrix in="SourceAlpha" type="matrix" values="0 0 0 0 0 0 0 0 0 0 0 0 0 0 0 0 0 0 127 0"/>
<feOffset dy="4"/>
<feGaussianBlur stdDeviation="2"/>
<feColorMatrix type="matrix" values="0 0 0 0 0 0 0 0 0 0 0 0 0 0 0 0 0 0 0.25 0"/>
<feBlend mode="normal" in2="BackgroundImageFix" result="effect1_dropShadow"/>
<feBlend mode="normal" in="SourceGraphic" in2="effect1_dropShadow" result="shape"/>
</filter>
</defs>
</svg>
